<?xml version="1.0" standalone="no"?><!DOCTYPE svg PUBLIC "-//W3C//DTD SVG 1.1//EN" "http://www.w3.org/Graphics/SVG/1.1/DTD/svg11.dtd"><svg class="icon" width="200px" height="200.00px" viewBox="0 0 1024 1024" version="1.1" xmlns="http://www.w3.org/2000/svg"><path d="M663.221239 4.530973H140.346903C95.433628 4.530973 58.902655 38.173451 58.902655 79.461947v869.60708C58.902655 990.357522 95.433628 1024 140.346903 1024h743.306194c44.913274 0 81.444248-33.642478 81.444248-74.930973V282.336283L663.221239 4.530973zM511.546903 748.460177c-3.681416 32.39646-30.414159 53.578761-63.546903 48.141593-33.189381-5.890265-52.502655-32.39646-48.821239-64.849558 3.681416-32.453097 31.320354-52.106195 63.546903-46.669026 33.189381 4.417699 52.502655 30.470796 48.821239 63.376991zM516.757522 627.539823H433.557522c-14.102655-108.686726 100.700885-133.663717 100.700885-201.571681 0-36.700885-21.861947-58.166372-58.846018-58.166372-31.150442 0-55.957522 14.329204-80.764601 42.364602L342.088496 359.19292C378.109735 315.695575 426.761062 287.716814 486.116814 287.716814 566.881416 287.716814 625.274336 331.610619 625.274336 417.302655 625.274336 519.362832 507.015929 531.59646 516.757522 627.539823z" fill="#CCCCCC" /><path d="M965.097345 288.849558h-237.876106a48.934513 48.934513 0 0 1-35.681416-15.292036 48.934513 48.934513 0 0 1-15.292035-35.681416v-237.876106l288.849557 288.849558z" fill="#E5E5E5" /></svg>