<?xml version="1.0" standalone="no"?><!DOCTYPE svg PUBLIC "-//W3C//DTD SVG 1.1//EN" "http://www.w3.org/Graphics/SVG/1.1/DTD/svg11.dtd"><svg t="1651063667946" class="icon" viewBox="0 0 1228 1024" version="1.1" xmlns="http://www.w3.org/2000/svg" p-id="3405" xmlns:xlink="http://www.w3.org/1999/xlink" width="239.84375" height="200"><defs><style type="text/css">@font-face { font-family: feedback-iconfont; src: url("//at.alicdn.com/t/font_1031158_u69w8yhxdu.woff2?t=1630033759944") format("woff2"), url("//at.alicdn.com/t/font_1031158_u69w8yhxdu.woff?t=1630033759944") format("woff"), url("//at.alicdn.com/t/font_1031158_u69w8yhxdu.ttf?t=1630033759944") format("truetype"); }
</style></defs><path d="M47.4112 336.7424h35.5328V44.3392c0-24.1152 20.8896-44.3392 47.104-44.3392h353.3824c15.3088 0 28.3136 6.144 36.7104 15.872l163.7376 166.5536h414.6176c25.4464 0 47.104 19.8144 47.104 44.032v110.2848h35.328c25.856 0 47.872 19.8144 47.872 44.7488 0 2.5088-0.768 4.608-0.768 7.168l-75.776 567.5008a43.7248 43.7248 0 0 1-20.8896 32.1024 50.8416 50.8416 0 0 1-32.8704 13.0048H130.048a52.224 52.224 0 0 1-32.9216-12.6464 43.8272 43.8272 0 0 1-21.4528-33.1776L0.3584 386.8672c-3.072-24.1664 15.0528-46.4896 41.1136-50.1248h5.9392z m953.856-18.176V270.848h-362.9056c-12.2368 0-23.7056-3.9936-32.768-10.8544l-155.2384-168.96h-268.288v227.584h819.2z" p-id="3406" fill="#bfcbd9"></path></svg>