<?xml version="1.0" standalone="no"?><!DOCTYPE svg PUBLIC "-//W3C//DTD SVG 1.1//EN" "http://www.w3.org/Graphics/SVG/1.1/DTD/svg11.dtd"><svg t="1650302936895" class="icon" viewBox="0 0 1024 1024" version="1.1" xmlns="http://www.w3.org/2000/svg" p-id="3746" xmlns:xlink="http://www.w3.org/1999/xlink" width="200" height="200"><defs><style type="text/css">@font-face { font-family: feedback-iconfont; src: url("//at.alicdn.com/t/font_1031158_u69w8yhxdu.woff2?t=1630033759944") format("woff2"), url("//at.alicdn.com/t/font_1031158_u69w8yhxdu.woff?t=1630033759944") format("woff"), url("//at.alicdn.com/t/font_1031158_u69w8yhxdu.ttf?t=1630033759944") format("truetype"); }
</style></defs><path d="M252.5 0h519c44.183 0 80 35.817 80 80v864c0 44.183-35.817 80-80 80h-519c-44.183 0-80-35.817-80-80V80c0-44.183 35.817-80 80-80z m2 122c-11.046 0-20 8.954-20 20v680c0 11.046 8.954 20 20 20h516c11.046 0 20-8.954 20-20V142c0-11.046-8.954-20-20-20h-516zM435 58c-7.456 0-13.5 6.044-13.5 13.5S427.544 85 435 85h154c7.456 0 13.5-6.044 13.5-13.5S596.456 58 589 58H435z m77.5 934c32.585 0 59-26.415 59-59s-26.415-59-59-59-59 26.415-59 59 26.415 59 59 59z" p-id="3747"></path></svg>