<?xml version="1.0" standalone="no"?><!DOCTYPE svg PUBLIC "-//W3C//DTD SVG 1.1//EN" "http://www.w3.org/Graphics/SVG/1.1/DTD/svg11.dtd"><svg t="1651123630690" class="icon" viewBox="0 0 1024 1024" version="1.1" xmlns="http://www.w3.org/2000/svg" p-id="7125" xmlns:xlink="http://www.w3.org/1999/xlink" width="200" height="200"><defs><style type="text/css">@font-face { font-family: feedback-iconfont; src: url("//at.alicdn.com/t/font_1031158_u69w8yhxdu.woff2?t=1630033759944") format("woff2"), url("//at.alicdn.com/t/font_1031158_u69w8yhxdu.woff?t=1630033759944") format("woff"), url("//at.alicdn.com/t/font_1031158_u69w8yhxdu.ttf?t=1630033759944") format("truetype"); }
</style></defs><path d="M635.733333 136.533333l198.314667 264.448a21.333333 21.333333 0 0 1-11.904 33.493334l-123.306667 30.805333a21.333333 21.333333 0 0 0-16.170666 20.693333v388.693334a21.333333 21.333333 0 0 1-21.333334 21.333333h-42.666666a21.333333 21.333333 0 0 1-21.333334-21.333333v-725.333334a21.333333 21.333333 0 0 1 38.4-12.8zM388.266667 887.466667l-198.314667-264.448a21.333333 21.333333 0 0 1 11.904-33.493334l123.306667-30.805333A21.333333 21.333333 0 0 0 341.333333 538.026667V149.333333a21.333333 21.333333 0 0 1 21.333334-21.333333h42.666666a21.333333 21.333333 0 0 1 21.333334 21.333333v725.333334a21.333333 21.333333 0 0 1-38.4 12.8z" p-id="7126" fill="#bfcbd9"></path></svg>