<?xml version="1.0" standalone="no"?><!DOCTYPE svg PUBLIC "-//W3C//DTD SVG 1.1//EN" "http://www.w3.org/Graphics/SVG/1.1/DTD/svg11.dtd"><svg class="icon" width="200px" height="200.00px" viewBox="0 0 1024 1024" version="1.1" xmlns="http://www.w3.org/2000/svg"><path d="M97.92 320.448h828.352v384.704H97.92z" fill="#F95F5D" /><path d="M926.272 320.448V113.152c0-25.664-23.744-48.576-52.096-48.576H149.888c-28.288 0-52.096 22.912-52.096 48.64v207.232h828.48z" fill="#55C7F7" /><path d="M97.92 705.152v206.464c0 25.6 23.552 48.448 51.648 48.448h725.056c28.096 0 51.648-22.848 51.648-48.448v-206.464H97.92z" fill="#7ECF3B" /><path d="M415.68 64.64h188.16V960h-188.16z" fill="#FDAF42" /><path d="M645.504 440.704v141.44H378.88v-141.44h266.624m42.752-57.728H336.064c-6.08 0-16.256 5.504-16.256 14.848v225.216a16.64 16.64 0 0 0 16.256 14.848h352.192c6.08 0 16.256-5.568 16.256-14.848v-225.28c-3.968-11.008-10.176-14.784-16.256-14.784z" fill="#FFFFFF" /></svg>