<?xml version="1.0" standalone="no"?><!DOCTYPE svg PUBLIC "-//W3C//DTD SVG 1.1//EN" "http://www.w3.org/Graphics/SVG/1.1/DTD/svg11.dtd"><svg class="icon" width="200px" height="200.00px" viewBox="0 0 1024 1024" version="1.1" xmlns="http://www.w3.org/2000/svg"><path d="M128 32c-19.2 0-32 12.8-32 32v896c0 19.2 12.8 32 32 32h768c19.2 0 32-12.8 32-32V281.6c0-6.4-6.4-19.2-6.4-25.6L704 38.4c-6.4-6.4-12.8-6.4-25.6-6.4H128z" fill="#E7E9FF" /><path d="M896 1024H128c-38.4 0-64-25.6-64-64V64c0-38.4 25.6-64 64-64h550.4c19.2 0 32 6.4 44.8 19.2l217.6 217.6c12.8 12.8 19.2 32 19.2 44.8V960c0 38.4-25.6 64-64 64zM128 64v896h768V281.6L678.4 64H128z m0-32V64 32z" fill="#AFB4FF" /><path d="M723.2 384c25.6 0 44.8 19.2 44.8 38.4v313.6c0 19.2-12.8 32-32 32h-448c-19.2 0-32-12.8-32-32V422.4c0-19.2 19.2-38.4 44.8-38.4h422.4zM371.2 601.6l-51.2 32V704h384V627.2l-115.2 38.4c-19.2 6.4-38.4 6.4-51.2-6.4l-102.4-57.6c-19.2-6.4-44.8-6.4-64 0zM704 448H320v108.8l51.2-32c19.2-12.8 44.8-12.8 64 0l108.8 64c12.8 6.4 32 12.8 51.2 6.4l108.8-32V448z m-96 44.8c12.8 0 19.2 6.4 25.6 12.8 6.4 12.8 6.4 19.2 0 32s-12.8 19.2-25.6 19.2c-19.2 0-32-19.2-32-32 0-19.2 12.8-32 32-32z" fill="#AFB4FF" /><path d="M672 32v192c0 38.4 25.6 64 64 64h192v-6.4c0-6.4-6.4-19.2-6.4-25.6L704 38.4c-12.8 0-19.2-6.4-32-6.4z" fill="#E7E9FF" /><path d="M928 320h-192c-51.2 0-96-44.8-96-96V0h38.4c19.2 0 32 6.4 44.8 19.2l217.6 217.6c12.8 12.8 19.2 32 19.2 44.8v32l-32 6.4zM704 89.6v134.4c0 19.2 12.8 32 32 32h128L704 89.6z" fill="#AFB4FF" /><path d="M128 64h512v64H128z" fill="#FFFFFF" fill-opacity=".5" /><path d="M128 896h768v64H128zM768 320h128v64h-128z" fill="#29329E" fill-opacity=".048" /></svg>