<?xml version="1.0" standalone="no"?><!DOCTYPE svg PUBLIC "-//W3C//DTD SVG 1.1//EN" "http://www.w3.org/Graphics/SVG/1.1/DTD/svg11.dtd"><svg class="icon" width="200px" height="200.00px" viewBox="0 0 1024 1024" version="1.1" xmlns="http://www.w3.org/2000/svg"><path d="M128 32c-19.2 0-32 12.8-32 32v896c0 19.2 12.8 32 32 32h768c19.2 0 32-12.8 32-32V281.6c0-6.4-6.4-19.2-6.4-25.6L704 38.4c-6.4-6.4-12.8-6.4-25.6-6.4H128z" fill="#F8E9FF" /><path d="M896 1024H128c-38.4 0-64-25.6-64-64V64c0-38.4 25.6-64 64-64h550.4c19.2 0 32 6.4 44.8 19.2l217.6 217.6c12.8 12.8 19.2 32 19.2 44.8V960c0 38.4-25.6 64-64 64zM128 64v896h768V281.6L678.4 64H128z m0-32V64 32z" fill="#D9A8F2" /><path d="M614.4 416l-147.2 51.2c-19.2 6.4-38.4 25.6-38.4 44.8v172.8s-12.8-6.4-38.4-6.4c-38.4 6.4-64 38.4-64 70.4 0 32 32 51.2 64 44.8 38.4-6.4 64-32 64-64V582.4c0-12.8 12.8-19.2 12.8-19.2L608 512s12.8-6.4 12.8 6.4V640s-12.8-6.4-38.4-6.4c-38.4 6.4-64 32-64 64s32 51.2 64 44.8c38.4-6.4 64-32 64-64V441.6c6.4-19.2-12.8-32-32-25.6z" fill="#D9A8F2" /><path d="M672 32v192c0 38.4 25.6 64 64 64h192v-6.4c0-6.4-6.4-19.2-6.4-25.6L704 38.4c-12.8 0-19.2-6.4-32-6.4z" fill="#F8E9FF" /><path d="M928 320h-192c-51.2 0-96-44.8-96-96V0h38.4c19.2 0 32 6.4 44.8 19.2l217.6 217.6c12.8 12.8 19.2 32 19.2 44.8v32l-32 6.4zM704 89.6v134.4c0 19.2 12.8 32 32 32h128L704 89.6z" fill="#D9A8F2" /><path d="M128 64h512v64H128z" fill="#FFFFFF" fill-opacity=".5" /><path d="M128 896h768v64H128zM768 320h128v64h-128z" fill="#5E008E" fill-opacity=".051" /></svg>